<?xml version="1.0" encoding="UTF-8"?>
<svg width="71px" height="79px" viewBox="0 0 71 79" version="1.1" xmlns="http://www.w3.org/2000/svg" xmlns:xlink="http://www.w3.org/1999/xlink">
    <!-- Generator: Sketch 52.5 (67469) - http://www.bohemiancoding.com/sketch -->
    <title>分组 6</title>
    <desc>Created with Sketch.</desc>
    <defs>
        <rect id="path-1" x="0" y="0" width="63" height="31"></rect>
    </defs>
    <g id="key-flow-1218" stroke="none" stroke-width="1" fill="none" fill-rule="evenodd">
        <g id="0-1Landing-未登录" transform="translate(-944.000000, -1050.000000)">
            <g id="VTF" transform="translate(732.000000, 994.000000)">
                <g id="分组-6" transform="translate(213.000000, 57.000000)">
                    <path d="M48.8445504,0 L69,20.865122 L69,77 L0,77 L0,0.846153846 L38.7214713,0.846153846 M49.0168967,0 L49.0168967,20.865122 L68.6280948,20.865122 M11.5332031,22.7514071 L36.0002486,22.7514071 M44.793093,29.3245779 L11.5332031,29.3245779 M11.5332031,35.8977486 L53.5859375,35.8977486 M11.5332031,42.4709193 L53.5859375,42.4709193" id="Shape" stroke="#213EC6" stroke-width="1.6"></path>
                    <g id="形状" transform="translate(3.000000, 45.000000)">
                        <mask id="mask-2" fill="white">
                            <use xlink:href="#path-1"></use>
                        </mask>
                        <use id="Mask" fill="#FFFFFF" fill-rule="nonzero" xlink:href="#path-1"></use>
                        <path d="M17.7242263,24.6704197 C17.7244064,24.6700085 17.7245898,24.6695896 17.7247766,24.669163 C17.724598,24.6695712 17.7244194,24.6699792 17.7242408,24.6703871 Z M17.7242408,24.6703871 C17.4002956,25.4100393 17.0230203,25.6309223 15.8985283,25.8363575 C15.5000084,25.9089811 14.9433853,26.0031448 13.8392596,26.1866058 C13.8272956,26.1885937 13.8272956,26.1885937 13.8153314,26.1905815 C12.5395957,26.4025408 12.2333645,26.4538313 11.84509,26.521986 C11.1408139,26.6453858 10.6545455,27.322212 10.6545455,28.1828951 L10.6545455,31.5119624 C10.6545455,32.4793349 11.1263496,32.9726073 12.2546218,33.1792647 C12.5544432,33.2341139 12.9009822,33.2948436 13.2884538,33.3606861 C13.4794403,33.393041 13.4794403,33.393041 13.6716935,33.4252508 C14.130641,33.5019489 14.617774,33.5813264 15.1387781,33.6647668 C15.4652734,33.717056 15.7599535,33.7637602 16.1560989,33.8263779 C16.9330702,33.9496614 17.38503,34.2826445 17.657986,34.9250175 C17.7171224,35.0642357 17.7151317,35.0599446 17.8460932,35.336574 C17.855482,35.3564292 17.855482,35.3564292 17.8649815,35.3766484 C17.9689046,35.5982895 18.0484991,35.7944471 18.1610307,36.1189969 C18.3587565,36.6886132 18.3530659,36.6701684 18.3663394,36.8884522 C18.3909711,37.2935219 18.2371353,37.645853 17.8335196,38.2060115 C17.5622152,38.5825327 17.1560045,39.143291 16.621581,39.8795045 C16.6188037,39.8833304 16.6188037,39.8833304 16.6160265,39.8871562 C16.290316,40.335845 15.9485639,40.806228 15.4232528,41.5291559 C15.0101808,42.0976975 15.1319225,42.9296447 15.6390041,43.4542249 C15.9185107,43.7432783 16.3592748,44.1806371 16.9560812,44.7638023 C16.9767616,44.7840082 16.9767616,44.7840082 16.997447,44.8042121 C17.1905226,44.9927775 17.3909247,45.1878665 17.6364675,45.4264454 C17.9348302,45.7162223 18.0934038,45.8702143 18.1906292,45.9647428 C18.7571778,46.51538 19.6316449,46.589413 20.3507692,46.093145 C20.7099528,45.8451482 21.2297026,45.4832441 21.8748484,45.0323403 C21.8823377,45.0271058 21.8823377,45.0271058 21.8898269,45.0218713 C22.2408362,44.7765332 22.6125859,44.5163043 23.0104903,44.2374843 C23.2574183,44.0644565 23.4839581,43.9056206 23.7851109,43.694441 C24.4066474,43.258709 25.0975542,43.248552 25.7109664,43.486835 C25.7299155,43.4942152 25.7299155,43.4942152 25.7487775,43.5015873 C25.7791473,43.5134844 25.7791473,43.5134844 25.8094166,43.525408 C25.9393962,43.5766783 26.0718052,43.6301941 26.2573765,43.7062495 C26.3509,43.7445795 26.7648092,43.9149267 26.8706261,43.9583854 C27.5640838,44.2434372 27.8477232,44.6747019 28.0290308,45.5247073 C28.0980328,45.8486531 28.2333578,46.5878437 28.4298137,47.6993518 C28.4382001,47.7468116 28.4382001,47.7468116 28.4465825,47.7942903 C28.4986577,48.0893112 28.5524486,48.3957234 28.6175386,48.7677014 C28.69598,49.2163108 28.69598,49.2163108 28.7611492,49.5888075 C28.9112695,50.4450785 29.4780578,50.8991139 30.4007971,50.9113235 C30.8091998,50.9168351 31.1601819,50.9193822 31.5282286,50.9197246 C31.7562441,50.9199367 31.9916169,50.9193401 32.301212,50.9179061 C32.4654315,50.9171454 33.1130258,50.913678 33.2367559,50.9130585 C33.4189618,50.9121612 33.4189618,50.9121612 33.6142653,50.9112824 C34.7829191,50.9063691 35.3500148,50.4916088 35.5038958,49.7003119 C35.5752935,49.3333581 35.6921801,48.6732708 35.8424084,47.7961806 C35.8529468,47.7346286 35.8529468,47.7346286 35.8634782,47.6730222 C35.9380201,47.2368024 36.016443,46.7727722 36.0983572,46.2844523 C36.1489077,45.9831028 36.1933543,45.7169143 36.2457444,45.4027311 C36.3596624,44.722674 36.6486846,44.3642704 37.2370212,44.0828029 C37.3005046,44.0524825 37.3634865,44.0229905 37.4273968,43.9936403 C37.500154,43.9603911 37.500154,43.9603911 37.573293,43.9275819 C37.7956214,43.8282762 38.0301781,43.7287288 38.6610866,43.4625734 C39.2370634,43.217824 39.7060908,43.2572881 40.1888027,43.5370336 C40.3070838,43.6055809 40.3880448,43.6608276 40.5969102,43.8098917 C40.8263282,43.9735335 41.4566385,44.4147712 42.3972214,45.0709615 C42.4005787,45.0733037 42.4005787,45.0733037 42.403936,45.0756459 C42.8511133,45.3876121 43.2746788,45.6828177 43.9300499,46.1394582 C44.5995049,46.606136 45.4041402,46.5449769 46.0145423,45.961701 C46.6441525,45.3602565 46.6033849,45.3997185 48.5897139,43.4731286 C49.1863883,42.8945888 49.1744552,42.0952805 48.751747,41.4592876 C48.5861497,41.2102591 48.1416129,40.5866431 47.5065493,39.708625 C47.4953067,39.6930821 47.4953067,39.6930821 47.484063,39.67754 C47.0318291,39.0524482 46.7753249,38.7001852 46.1629291,37.8607581 C45.8049279,37.3692616 45.7850487,36.6174127 46.0185764,36.0942915 C46.0874938,35.9398004 46.1965523,35.7069676 46.3468823,35.3914793 C46.3520928,35.3805454 46.3520928,35.3805454 46.3573035,35.3696152 C46.4308318,35.2153936 46.5108601,35.0484138 46.6379801,34.7833496 C46.8801231,34.2784024 47.3404432,33.9614703 47.9450245,33.8445587 C48.1767278,33.7996461 48.9989746,33.6574232 50.3009298,33.4356585 C50.3181129,33.4327317 50.3181129,33.4327317 50.3352969,33.4298051 C50.9030868,33.3331092 51.4910553,33.2333565 52.339139,33.0895784 C53.1295913,32.9553974 53.5521566,32.3902823 53.5585811,31.5231348 C53.5616781,31.1211306 53.5631593,30.6327852 53.5635349,30.0212431 C53.5637107,29.7349847 53.5636665,29.5076161 53.5634302,29.0161554 C53.563189,28.5378147 53.5631475,28.3425027 53.5633388,28.1296377 C53.5641636,27.2506387 53.057279,26.6027644 52.3225889,26.4837042 C51.4368528,26.3401649 48.2407737,25.8225362 47.8224839,25.7548606 C47.3302232,25.6752833 46.7832355,25.2367333 46.6317715,24.857012 C46.5981154,24.7722071 46.4796449,24.4822651 46.2995398,24.0432998 C46.2988587,24.0416398 46.2988587,24.0416398 46.2981776,24.0399798 C46.1332904,23.6383324 46.1332904,23.6383324 46.0127469,23.3449739 C45.7825049,22.7843816 45.8869665,22.1252084 46.2988283,21.5504748 C46.4467524,21.3439246 46.8828801,20.7423539 47.5237881,19.8602074 C47.9558064,19.265577 48.4163849,18.632198 48.8327485,18.0598951 C49.1736255,17.5911593 49.1142269,16.7025423 48.6294137,16.2151953 C48.350532,15.93485 47.8813131,15.4767869 47.2676112,14.8840485 C47.2531967,14.870127 47.2531967,14.870127 47.2387805,14.8562063 C46.9472268,14.5746844 46.6382447,14.277394 46.3048418,13.9573588 C46.1088843,13.7692582 45.9123224,13.5808226 45.6687521,13.3473614 C45.3883552,13.0784199 44.4983394,13.0739929 44.0682127,13.3742085 C43.8281415,13.541487 43.1773785,13.9968788 42.2434303,14.6509775 C42.242552,14.6515926 42.242552,14.6515926 42.2416738,14.6522077 C41.8206069,14.9471057 41.5199176,15.1577474 40.9186,15.5790393 C40.4375901,15.9160726 40.4375901,15.9160726 40.3116284,16.0042853 C40.2469841,16.0482558 40.1482693,16.1035062 40.0198155,16.156593 C39.6262917,16.3192264 39.1963476,16.3604398 38.7668484,16.1925508 C38.5858711,16.1218393 38.3328868,16.0188745 38.0252581,15.8913104 C38.0064958,15.8835286 38.0064958,15.8835286 37.9877441,15.8757449 C37.7697714,15.7852474 37.5386532,15.6883671 37.309046,15.5914978 C37.1712867,15.5333782 37.0646958,15.4881996 37.0036312,15.4622272 L36.9010144,15.403374 C36.7785126,15.3122997 36.6278046,15.1482868 36.4882782,14.9002172 C36.3562848,14.6655408 36.2567984,14.3889479 36.2004422,14.0696381 C36.1408613,13.7313984 36.0153711,13.0069247 35.8234089,11.8945821 C35.822627,11.8900513 35.822627,11.8900513 35.8218451,11.8855205 C35.7715128,11.5938615 35.5077472,10.0642653 35.4639018,9.81058854 C35.3582109,9.20029849 34.6831194,8.70185613 33.9813354,8.70769124 C33.589005,8.711083 32.9585709,8.71179534 32.0516522,8.71066352 C31.6576903,8.71011016 31.6576903,8.71011016 31.2771434,8.70943362 C30.3793021,8.70780904 30.317278,8.70770993 30.0871741,8.70770993 C29.5202179,8.70770993 28.8571352,9.29027423 28.7604676,9.81573364 L28.7604782,9.81559622 C28.7030667,10.1281725 28.5742885,10.8813245 28.3932919,11.9574655 C28.3894522,11.9802959 28.3894522,11.9802959 28.385613,12.0031291 C28.3194398,12.3967009 28.2496558,12.8133625 28.1740949,13.2656745 C28.0842502,13.8038694 28.0842502,13.8038694 28.0255167,14.1560134 C27.9626371,14.5320802 27.8299266,14.8385499 27.6435156,15.076141 C27.4613886,15.3082719 27.2630032,15.4389907 27.1214919,15.4880832 C26.8849781,15.5838926 26.8849781,15.5838926 26.1754359,15.8713323 L26.1753533,15.8713658 C25.8411177,16.0067705 25.8411177,16.0067705 25.5563917,16.1221255 C24.8432886,16.4111227 24.4296292,16.3065504 23.5034242,15.6900617 C23.1083209,15.4270782 22.5065053,15.0169436 21.6807477,14.4494956 C21.6667368,14.4398673 21.6667368,14.4398673 21.6527267,14.4302387 C21.4209852,14.2709682 21.1820207,14.1064858 20.8828565,13.9003891 C20.5193848,13.6499438 20.5193848,13.6499438 20.1977763,13.4283915 C19.5229449,12.9637245 18.7468592,13.0566949 18.2587593,13.5497041 C17.9592461,13.8521544 17.4663761,14.3339364 16.7772016,15.0004044 C16.7635823,15.0135745 16.7635823,15.0135745 16.7499624,15.0267435 C16.4391181,15.3272861 16.118989,15.635878 15.5806376,16.1545632 C15.0376693,16.67835 15.0710808,17.5590245 15.6666863,18.3667156 C15.9041308,18.6886588 16.1903719,19.0819184 16.5209436,19.5396614 C16.5394967,19.565354 16.5394967,19.565354 16.5580458,19.5910498 C16.7805919,19.8993639 17.0142672,20.2244249 17.2736632,20.5862407 C17.4299711,20.8042653 17.5920961,21.0307229 17.8343194,21.3691158 C18.3812474,22.1325586 18.5356623,22.6323534 18.3378399,23.2052638 C18.2730664,23.3925435 18.1889491,23.6030869 18.0707932,23.8787953 C17.9985457,24.0473797 17.6623556,24.8116989 17.7242263,24.6704197 Z M37.8280619,16.2352325 C37.8277491,16.2351049 37.8273859,16.2349568 37.8269715,16.2347879 C37.8272862,16.2349163 37.8276001,16.2350443 37.8279131,16.235172 Z M37.8279131,16.235172 C37.9419409,16.2816824 37.9422544,16.2818109 38.0567711,16.3287518 C38.293317,16.4258661 38.4937894,16.509599 38.6774656,16.588365 C39.0211977,16.7356988 39.9331967,16.6605959 40.1473818,16.5144158 C40.1964677,16.4808699 41.6070456,15.5194403 42.1766736,15.1308698 C42.1791659,15.1291697 42.1791659,15.1291697 42.1816583,15.1274696 C43.3580107,14.3250191 44.0932441,13.8219817 44.2052754,13.7420937 C44.6941654,13.3932096 45.3193583,13.4725491 45.7977473,13.9436896 C45.8764757,14.0211543 46.7853363,14.9131844 47.0660623,15.1889166 C47.0677974,15.1906208 47.0677974,15.1906208 47.0695324,15.192325 C47.8104425,15.9200598 48.2610782,16.3640933 48.3659798,16.4707968 C48.7632271,16.8749401 48.80875,17.374799 48.4774305,17.8375237 C48.5016555,17.8037124 47.5433872,19.1359599 47.1128128,19.7361545 C47.1078788,19.7430323 47.1078788,19.7430323 47.1029449,19.7499101 C46.5490174,20.5220863 46.1392271,21.096246 45.9176037,21.4118768 C45.459339,22.0645255 45.3853972,22.8351964 45.6773332,23.5268228 C45.8157391,23.8544787 45.8832895,24.0128641 45.9558326,24.1817836 C45.9562524,24.1827662 45.9562524,24.1827662 45.9566722,24.1837491 C46.0040608,24.2946951 46.0515913,24.4080216 46.1696483,24.6919505 C46.4740486,25.424366 47.0004571,25.9846175 47.5983031,26.0813604 C47.8808509,26.1270698 49.8460542,26.4466775 49.7695231,26.4342403 C49.7755646,26.4352222 49.7755646,26.4352222 49.7816062,26.436204 C51.1632187,26.6607267 51.9656535,26.7902241 52.1656794,26.8202783 C52.8142618,26.9180612 53.1897378,27.417854 53.1897378,28.0243363 C53.1897378,28.1000661 53.1890909,28.3379742 53.1871574,29.0430899 C53.1862031,29.4271821 53.185838,29.5897342 53.185404,29.8349782 C53.1836068,30.8506125 53.1846731,31.5049995 53.1893963,31.6294202 C53.2093185,32.1681895 52.7891316,32.6599399 52.298686,32.7446999 C52.3257036,32.7400604 50.7714331,33.0132782 50.0311219,33.1420707 C49.9989737,33.1476629 49.9989737,33.1476629 49.9668175,33.153254 C48.9932513,33.3225108 48.2777818,33.4442799 47.8994494,33.5039709 C47.1243584,33.6259464 46.434714,34.1335625 46.1938376,34.6949927 C46.1178799,34.8722414 46.0586995,35.0139667 46.0009548,35.1567782 C45.990924,35.1816168 45.990924,35.1816168 45.9809098,35.2065364 C45.9378293,35.3138665 45.8934419,35.4268468 45.8320877,35.5849803 C45.798976,35.6703221 45.7439884,35.8126154 45.6295345,36.1086635 C45.399294,36.7030672 45.4402365,37.510983 45.7057337,37.8763893 C45.8091731,38.0187516 46.8030118,39.3769658 47.0397223,39.7009998 C47.0443694,39.7073613 47.0443694,39.7073613 47.0490166,39.713723 C47.8691146,40.8364029 48.3406783,41.4875317 48.4362005,41.634125 C48.7719699,42.1494089 48.7574951,42.7406284 48.2988958,43.1918665 C48.2541369,43.2359438 47.3666573,44.11279 47.0213778,44.4533903 C47.0180867,44.4566368 47.0180867,44.4566368 47.0147956,44.4598833 C46.3354746,45.1299834 45.8910505,45.5661334 45.7379369,45.7116177 C45.2262175,46.1982748 44.6961264,46.1683823 44.0998993,45.7630214 C44.2773608,45.8834598 42.3865452,44.627492 41.60751,44.0941015 C41.4853177,44.0103413 41.4853177,44.0103413 41.3633826,43.9263392 C41.0950493,43.741235 40.8456142,43.5667184 40.6164604,43.4034965 C39.9030055,42.8954662 39.2419606,42.8333378 38.4656242,43.1417383 C38.1645271,43.2614092 38.0913523,43.291535 38.0549387,43.308297 C38.0546206,43.3084434 38.0546206,43.3084434 38.054293,43.3085941 C38.0018203,43.3327247 37.9128681,43.3676845 37.2650412,43.6188364 C36.3474533,43.9745737 35.9665499,44.5913218 35.7585721,45.7966664 C35.6988631,46.142775 35.635349,46.5113139 35.4829665,47.395712 C35.4829457,47.395833 35.4829457,47.395833 35.4829248,47.3959539 C35.2442976,48.7808806 35.1497147,49.3293565 35.1140301,49.5344017 C35.0020048,50.1780231 34.5572208,50.5373586 33.884893,50.5373586 L30.3862289,50.5373586 C29.7203438,50.5373586 29.3393619,50.2286928 29.126549,49.5531724 C28.9888684,49.1148507 28.63913,47.0536538 28.4182616,45.5344282 C28.2971548,44.6990424 27.818208,43.9455684 27.3928101,43.7754388 C27.2108361,43.7027442 27.137274,43.6730061 26.982704,43.6100329 C26.9824609,43.6099339 26.9824609,43.6099339 26.9822179,43.6098349 C26.765568,43.5215705 26.5571785,43.438379 25.9215705,43.18745 C24.9959013,42.8220484 24.2263442,42.9138295 23.6317775,43.3344213 C23.4509628,43.462318 22.1091555,44.420451 21.9381927,44.5422962 C21.9294201,44.5485483 21.9294201,44.5485483 21.9206473,44.5548003 C20.8778244,45.29796 20.2676237,45.7275318 20.0876424,45.840635 C19.56184,46.1712888 18.8704129,46.1343263 18.4815827,45.751254 C18.3187379,45.5912675 16.5221494,43.8236556 15.9723749,43.2826216 C15.4682732,42.7866105 15.4828563,42.1513059 15.9169767,41.5474671 C15.9386763,41.5172606 16.8240602,40.2723692 17.1798743,39.7761198 C17.1973173,39.7517947 17.1973173,39.7517947 17.2147649,39.7274728 C17.5915727,39.2022569 17.8997333,38.777857 18.1315611,38.4664184 C18.7727119,37.60509 18.9314526,36.8732189 18.6043934,36.1293543 C18.437149,35.7491774 18.3548346,35.5617624 18.2664949,35.3604051 C18.2664099,35.3602116 18.2664099,35.3602116 18.266325,35.3600181 C18.2019655,35.2134492 18.1338875,35.0589271 17.9369653,34.6125417 C17.6458496,33.9525281 17.0859722,33.6203899 16.2396799,33.4768481 C16.0214934,33.4399257 14.4601133,33.1808899 14.2328615,33.1430187 C14.2077412,33.1388321 14.2077412,33.1388321 14.1826242,33.1346448 C12.9916902,32.9360865 12.2851252,32.8150114 12.0767448,32.7711845 C11.4345073,32.6355898 11.0356178,32.1518652 11.0356178,31.5344592 L11.0356178,28.0240873 C11.0356178,27.3095828 11.5156181,26.9297047 12.1205581,26.8290662 C12.1972595,26.8162216 13.7813234,26.5522011 14.2726302,26.4702573 C14.2750884,26.4698473 14.2750884,26.4698473 14.2775467,26.4694372 C15.0863038,26.3345461 15.6888413,26.2338993 16.0564214,26.1722353 C17.0734149,26.0016191 17.751419,25.5959922 18.0245223,24.9344283 C18.1125667,24.7211893 18.1775946,24.5621118 18.2307876,24.4303422 C18.2615072,24.3542438 18.2896668,24.2837666 18.3321513,24.1773905 C18.333265,24.1746165 18.333265,24.1746165 18.3343801,24.1718404 C18.3969833,24.0160062 18.4618107,23.8613473 18.6253183,23.4792101 C18.9159597,22.7997627 18.7944811,22.0448151 18.266846,21.3207188 C18.0741926,21.0564354 17.7998985,20.6809048 17.1805507,19.833123 C17.1793461,19.8314737 17.1793461,19.8314737 17.1781414,19.8298243 C16.4302663,18.805865 16.0205058,18.2433253 15.8702596,18.0329374 C15.4258952,17.4112113 15.4401667,16.8905894 15.972423,16.3668764 C16.0628209,16.2779283 16.9628946,15.3855086 17.213229,15.1378356 C17.218559,15.1325623 17.218559,15.1325623 17.2238891,15.1272891 C17.9516991,14.4072593 18.3922677,13.9756218 18.5203886,13.8604518 C18.9707229,13.4552078 19.616813,13.4110563 20.1342288,13.7792078 C20.7340672,14.2057509 21.3512087,14.6443162 21.9625218,15.0778781 C21.9673546,15.0813056 21.9673546,15.0813056 21.9721874,15.0847331 C22.7156285,15.6119917 23.2745762,16.0069896 23.5832857,16.2227165 C24.2422585,16.6830035 25.0130175,16.7700729 25.7535564,16.4648691 C26.0645289,16.3366498 26.5216944,16.1453048 26.4807426,16.1622469 C26.4848646,16.160542 26.4848646,16.160542 26.4889926,16.1588366 C26.6269195,16.1018703 26.7676207,16.046136 27.2119738,15.8723787 C27.9141314,15.5979555 28.2627093,15.1058821 28.4197087,14.1509527 L28.4197192,14.1509437 C28.5492957,13.3620057 28.6381146,12.8217416 28.7247775,12.297165 C28.7282545,12.2761192 28.7282545,12.2761192 28.731732,12.2550753 C28.9612172,10.8663992 29.0891771,10.1100828 29.1179275,9.99235861 C29.229584,9.53227438 29.6883927,9.05549261 30.2366818,9.05549261 C30.3125952,9.05549261 30.5641091,9.05569601 31.3133463,9.05630559 C31.700526,9.05659186 31.700526,9.05659186 32.1102393,9.05683603 C33.2135891,9.05743688 33.9004361,9.05711433 33.9909596,9.05557309 C34.4787039,9.04682082 35.0074869,9.41703144 35.10227,9.955821 C35.1055941,9.97471396 35.3866586,11.5563457 35.5101864,12.2541293 C35.5123901,12.2665779 35.5123901,12.2665779 35.5145938,12.2790269 C35.725937,13.4729824 35.865085,14.2676013 35.90907,14.5365854 C35.9811792,14.9783846 36.5864941,15.7279233 36.9830429,15.891077 C37.1639734,15.9654761 37.8659612,16.2506913 37.8280619,16.2352325 Z M44.6634039,44.9369061 C44.6628907,44.9365573 44.6623558,44.936194 44.6617991,44.9358161 C44.6623113,44.9361644 44.6628225,44.9365119 44.6633328,44.9368587 Z M41.7236239,29.7955193 C41.7236239,35.0271183 37.4166552,39.2650104 32.1077644,39.2650104 C26.7990505,39.2650104 22.4921995,35.0270891 22.4921995,29.7955193 C22.4921995,24.563911 26.7990797,20.3259798 32.1077644,20.3259798 C37.4167004,20.3259798 41.7236239,24.5638779 41.7236239,29.7955193 Z M32.1078135,19.9218658 C26.5595378,19.9218658 22.0648857,24.3442584 22.0648857,29.7955193 C22.0648857,35.2466148 26.5596248,39.669221 32.1078135,39.669221 C37.6561799,39.669221 42.1507414,35.2467299 42.1507414,29.7954974 C42.1509804,24.3442381 37.6563631,19.9218658 32.1078135,19.9218658 Z" stroke="#1332C3" fill="#1332C3" fill-rule="nonzero" mask="url(#mask-2)"></path>
                    </g>
                </g>
            </g>
        </g>
    </g>
</svg>