<?xml version="1.0" encoding="UTF-8"?>
<svg width="83px" height="82px" viewBox="0 0 83 82" version="1.1" xmlns="http://www.w3.org/2000/svg" xmlns:xlink="http://www.w3.org/1999/xlink">
    <!-- Generator: Sketch 52.5 (67469) - http://www.bohemiancoding.com/sketch -->
    <title>Token Issuance icon</title>
    <desc>Created with Sketch.</desc>
    <g id="key-flow-1218" stroke="none" stroke-width="1" fill="none" fill-rule="evenodd">
        <g id="0-1Landing-未登录" transform="translate(-417.000000, -1048.000000)" fill-rule="nonzero">
            <g id="Token-issuance" transform="translate(208.000000, 994.000000)">
                <g id="Token-Issuance-icon" transform="translate(209.000000, 54.000000)">
                    <path d="M41.1549932,81.9858024 C41.0492575,82.0047325 40.940915,82.0047325 40.8351794,81.9858024 L10.7060545,69.8245343 C10.388185,69.6957631 10.1822715,69.3894136 10.186357,69.0513503 L10.186357,40.6139023 L0.965059188,36.1713701 C0.713299382,36.0642114 0.53654064,35.8357485 0.498664066,35.5685486 C0.45504355,35.3042575 0.544457314,35.0355749 0.738524414,34.8477838 L10.2663105,25.4778413 L0.218826992,15.6099158 C0.0441980305,15.4167362 -0.0317907221,15.1560272 0.0122590102,14.9012038 C0.0563087425,14.6463804 0.215631295,14.4250116 0.445361766,14.2994343 L29.9748358,0.0807102997 C30.2904725,-0.0662793992 30.66534,-0.00916349479 30.9209516,0.224863262 L41.3815279,10.0141599 L51.8421043,0.224863262 C52.0977158,-0.00916349479 52.4725833,-0.0662793992 52.7882201,0.0807102997 L82.3176941,14.2732247 C82.5623978,14.3956831 82.7349085,14.6235025 82.7840892,14.889151 C82.8277097,15.1534421 82.738296,15.4221246 82.5442289,15.6099158 L75.6948834,22.3457905 C75.4830291,22.556476 75.1729749,22.6400069 74.8815152,22.564918 C74.5900554,22.4898291 74.3614698,22.2675282 74.2818643,21.9817538 C74.2022588,21.6959794 74.2837274,21.3901475 74.4955816,21.179462 L80.5187415,15.2560858 L52.5350341,1.82365066 L42.1544113,11.5474232 C42.0931577,11.5985567 42.026082,11.642533 41.9545277,11.6784713 L41.9545277,34.4415345 C41.9545277,34.8975027 41.5786657,35.2671379 41.1150164,35.2671379 C40.6513672,35.2671379 40.2755052,34.8975027 40.2755052,34.4415345 L40.2755052,12.1633495 L12.8248209,25.0191728 L41.8745742,38.6874945 L70.0448396,25.1109065 L45.6323863,13.9849187 C45.3400443,13.8739831 45.1348584,13.6121661 45.1002347,13.3058935 C45.0656109,12.9996208 45.207313,12.6998771 45.4677405,12.5285049 C45.728168,12.3571328 46.0639682,12.3426601 46.3386418,12.4909699 L72.1103037,24.2853031 C72.413524,24.2989947 72.684692,24.4751012 72.8165592,24.7439716 C72.824068,24.7917389 72.824068,24.8403573 72.8165592,24.8881246 L82.7707637,35.0181464 C82.9569874,35.2045378 83.0368874,35.469733 82.9839728,35.7258064 C82.9418599,35.9873479 82.7727905,36.2122994 82.5309033,36.3286279 L73.4428612,40.705636 L73.1097218,68.5140529 C73.0994516,68.8306045 72.9087378,69.1144704 72.6166756,69.2479225 L45.3792004,81.4354002 C45.1026927,81.5959836 44.7572617,81.587378 44.4893763,81.4132324 C44.2214908,81.2390868 44.0780892,80.9299145 44.1199762,80.61681 C44.1618632,80.3037056 44.3816994,80.0415304 44.6862705,79.9414513 L71.4306994,67.9636507 L71.6838853,41.5443441 L52.948127,50.5211422 C52.6336983,50.676004 52.2540491,50.6181595 52.0020111,50.3769893 L41.6347139,40.6794264 L31.440649,50.2328363 C31.1791857,50.4657915 30.8014727,50.5225416 30.4812076,50.3769893 L11.8254028,41.4264008 L11.8254028,68.5140529 L40.2755052,79.967661 L40.2755052,45.161273 C40.2755052,44.7053049 40.6513672,44.3356697 41.1150164,44.3356697 C41.5786657,44.3356697 41.9545277,44.7053049 41.9545277,45.161273 L41.9545277,81.1601991 C41.9572924,81.4388008 41.8169857,81.6999814 41.5814116,81.8547543 C41.4542067,81.9361191 41.3066729,81.9814596 41.1549932,81.9858024 Z M43.2204573,39.8800327 L52.7349178,48.7782019 L80.7186251,35.332662 L71.8038155,26.1592916 L43.2204573,39.8800327 Z M2.8173141,35.2016138 L30.8010214,48.6340489 L40.1955518,39.6834604 L11.7054726,26.3951783 L2.8173141,35.2016138 Z M2.24431438,15.2560858 L11.1991007,24.0625213 L39.6891799,10.7087151 L30.188045,1.82365066 L2.24431438,15.2560858 Z" id="形状" fill="#213EC6"></path>
                    <rect id="矩形" fill="#FFFFFF" x="37" y="7" width="10" height="29"></rect>
                    <g id="分组-5" transform="translate(28.000000, 4.000000)" fill="#FFFFFF" stroke="#2541C7" stroke-width="1.5">
                        <path d="M14.1041559,1.00521466 L2.2546306,3.89623877 L14.1040918,10.3824218 L25.9452666,3.89621712 L14.1041559,1.00521466 Z" id="矩形"></path>
                        <path d="M0.958436725,4.3740229 L0.958436725,22.7391217 L13.9100496,27.0534033 L13.9100496,8.18894938 L0.958436725,4.3740229 Z" id="矩形"></path>
                        <path d="M27.25,4.3740229 L14.2983871,8.18894938 L14.2983871,27.0534033 L27.25,22.7391217 L27.25,4.3740229 Z" id="矩形-copy"></path>
                    </g>
                </g>
            </g>
        </g>
    </g>
</svg>