<?xml version="1.0" encoding="UTF-8"?>
<svg width="9px" height="10px" viewBox="0 0 9 10" version="1.1" xmlns="http://www.w3.org/2000/svg" xmlns:xlink="http://www.w3.org/1999/xlink">
    <!-- Generator: Sketch 52.5 (67469) - http://www.bohemiancoding.com/sketch -->
    <title>路径</title>
    <desc>Created with Sketch.</desc>
    <g id="key-flow-1218" stroke="none" stroke-width="1" fill="none" fill-rule="evenodd">
        <g id="3-1-Check-list" transform="translate(-572.000000, -1076.000000)" fill="#1332C3">
            <g id="上传信息展示-copy-3" transform="translate(231.000000, 1066.000000)">
                <g id="关--闭" transform="translate(341.000000, 10.000000)">
                    <path d="M5.19631282,5.00088045 L8.86069996,0.92884217 C9.04620542,0.721328732 9.04620542,0.3863741 8.86069996,0.178860661 L8.84077081,0.156718336 C8.65407442,-0.0489152471 8.35309059,-0.0489152471 8.16639418,0.156718316 L4.50136542,4.23411779 L0.836978276,0.154579697 C0.650206265,-0.0515265657 0.348731112,-0.0515265657 0.161959115,0.154579713 L0.142351391,0.177079158 C-0.0439609333,0.378686501 -0.047898545,0.709930288 0.133557588,0.916932997 C0.136450028,0.920232662 0.139381553,0.923489739 0.142351383,0.926703361 L3.80706373,5.00089002 L0.142034967,9.07365094 C-0.0434704987,9.28116439 -0.0434704987,9.61611902 0.142034976,9.82363246 L0.162285551,9.84577479 C0.348981913,10.0514083 0.649965743,10.0514083 0.836662152,9.84577484 L4.5013745,5.77301392 L8.16640326,9.84577484 C8.35309962,10.0514084 8.65408345,10.0514084 8.84077986,9.84577489 L8.86103043,9.82327544 C9.04632319,9.615804 9.04632319,9.28112182 8.86103044,9.07365135 L5.19631809,5.00089043 L5.19631282,5.00088045 Z" id="路径"></path>
                </g>
            </g>
        </g>
    </g>
</svg>