<?xml version="1.0" encoding="UTF-8"?>
<svg width="10px" height="10px" viewBox="0 0 10 10" version="1.1" xmlns="http://www.w3.org/2000/svg" xmlns:xlink="http://www.w3.org/1999/xlink">
    <!-- Generator: Sketch 52.5 (67469) - http://www.bohemiancoding.com/sketch -->
    <title>下载</title>
    <desc>Created with Sketch.</desc>
    <g id="key-flow-1218" stroke="none" stroke-width="1" fill="none" fill-rule="evenodd">
        <g id="3-1-Check-list" transform="translate(-550.000000, -1076.000000)" fill="#1332C3">
            <g id="上传信息展示-copy-3" transform="translate(231.000000, 1066.000000)">
                <g id="下载" transform="translate(319.000000, 10.000000)">
                    <g id="分组">
                        <path d="M0.808710089,5.32261279 L0.808710089,9.15244444 L9.1857599,9.15244444 L9.1857599,5.32261279 C9.18575986,5.08897111 9.36536782,4.89956639 9.58692465,4.89956639 C9.80848148,4.89956636 9.9880894,5.08897111 9.9880894,5.32261286 C9.9880894,5.32261286 9.9880894,5.32261286 9.9880894,5.32261286 L9.9880894,9.15244451 C9.9880894,9.61927818 9.628447,9.99784788 9.1857599,9.99784788 L0.80936143,9.99784788 C0.366020434,9.99784788 0.00703192848,9.61927818 0.00703192848,9.15244451 L0.00703192848,5.32261286 C0.00703189505,5.08916106 0.186492976,4.89991123 0.407869732,4.89991123 C0.629246488,4.8999112 0.808707535,5.08916106 0.808707535,5.32261292 C0.808707535,5.32261292 0.808707535,5.32261292 0.808707535,5.32261293 L0.808710089,5.32261279 Z" id="路径"></path>
                        <path d="M5.14600885,0.00148148148 C5.42310746,0.00148148148 5.64641635,0.178542913 5.64641635,0.397607968 L5.64641635,6.54693603 L4.64641635,6.54693603 L4.64641635,0.397607968 C4.64641635,0.178542913 4.87054023,0.00148148148 5.14600885,0.00148148148 Z" id="路径"></path>
                        <path d="M5.06360153,6.89205387 L6.70291188,5.16470034 C6.85946488,4.99960808 7.11328608,4.99960808 7.26983908,5.16470033 C7.42639208,5.32979259 7.42639208,5.59745858 7.26983908,5.76255084 L5.06359387,8.08844983 L2.858,5.76255084 C2.701447,5.59745858 2.701447,5.32979259 2.858,5.16470033 C3.014553,4.99960808 3.26837421,4.99960808 3.42492721,5.16470034 L5.06358621,6.89205387 L5.06360153,6.89205387 Z" id="路径"></path>
                    </g>
                </g>
            </g>
        </g>
    </g>
</svg>