<?xml version="1.0" encoding="UTF-8"?>
<svg width="82px" height="82px" viewBox="0 0 82 82" version="1.1" xmlns="http://www.w3.org/2000/svg" xmlns:xlink="http://www.w3.org/1999/xlink">
    <!-- Generator: Sketch 52.5 (67469) - http://www.bohemiancoding.com/sketch -->
    <title>Group 6</title>
    <desc>Created with Sketch.</desc>
    <g id="key-flow-1218" stroke="none" stroke-width="1" fill="none" fill-rule="evenodd" fill-opacity="0" stroke-linecap="square" stroke-linejoin="bevel">
        <g id="1-1-Creat-account-1-Creat-account-popup" transform="translate(-111.000000, -402.000000)" fill="#1332C3" stroke="#1332C3" stroke-width="2">
            <g id="Group-8" transform="translate(72.000000, 363.000000)">
                <g id="Group-6" transform="translate(40.000000, 40.000000)">
                    <path d="M74.429511,60.2238619 C77.9683473,54.2714772 80,47.3225934 80,39.9003736 C80,17.8640057 62.09139,0 40,0 C17.90861,0 0,17.8640057 0,39.9003736 C0,61.9367414 17.90861,79.8007472 40,79.8007472 C47.6179998,79.8007472 54.7386052,77.6764529 60.7989667,73.9893121" id="Oval"></path>
                    <path d="M58.3333333,35.7089833 L58.3333333,52.0251142 C58.3333333,53.3717811 57.2389183,54.4634703 55.8888889,54.4634703 L24.1111111,54.4634703 C22.7610817,54.4634703 21.6666667,53.3717811 21.6666667,52.0251142 L21.6666667,27.4383562 C21.6666667,26.0916892 22.7610817,25 24.1111111,25 L55.8888889,25 C57.2389183,25 58.3333333,26.0916892 58.3333333,27.4383562 L58.3333333,29.0227519 L40,38.2290942 L28.6182545,32.5603328" id="Rectangle-6"></path>
                </g>
            </g>
        </g>
    </g>
</svg>