<?xml version="1.0" encoding="UTF-8"?>
<svg width="20px" height="20px" viewBox="0 0 20 20" version="1.1" xmlns="http://www.w3.org/2000/svg" xmlns:xlink="http://www.w3.org/1999/xlink">
    <!-- Generator: Sketch Beta 53 (71402) - https://sketchapp.com -->
    <title>Shape</title>
    <desc>Created with Sketch Beta.</desc>
    <g id="组件" stroke="none" stroke-width="1" fill="none" fill-rule="evenodd">
        <g id="Top-Navigation" transform="translate(-1058.000000, -30.000000)" fill="#5B6EC9" fill-rule="nonzero">
            <g id="title">
                <g id="Community" transform="translate(1028.000000, 30.000000)">
                    <path d="M44.2016819,19.07711 L44.2016819,11.5585393 L46.2184785,11.5585393 L46.4705948,9.03929385 L44.0756461,9.03929385 L44.0756461,7.14997142 C44.0756461,7.14997142 44.0756461,6.64605979 44.579834,6.64605979 L46.3445366,6.64605979 L46.3445366,3.87501485 C46.3445366,3.87501485 43.9958539,3.83635378 43.1932836,4.00091459 C42.5369989,4.13552479 41.428581,4.75671503 41.428581,6.01629309 L41.428581,9.03929385 L39.4117621,9.03929385 L39.4117621,11.5585393 L41.428581,11.5585393 L41.428581,19.8987288 C40.9620023,19.9654682 40.4850338,20 40,20 C34.4771525,20 30,15.5228475 30,10 C30,4.4771525 34.4771525,1.01453063e-15 40,1.77635684e-15 C45.5228475,7.61826213e-16 50,4.4771525 50,10 C50,14.0221267 47.6254174,17.48964 44.2016819,19.07711 Z" id="Shape"></path>
                </g>
            </g>
        </g>
    </g>
</svg>