<?xml version="1.0" encoding="UTF-8"?>
<svg width="32px" height="32px" viewBox="0 0 32 32" version="1.1" xmlns="http://www.w3.org/2000/svg" xmlns:xlink="http://www.w3.org/1999/xlink">
    <!-- Generator: Sketch 52.5 (67469) - http://www.bohemiancoding.com/sketch -->
    <title>Group 6</title>
    <desc>Created with Sketch.</desc>
    <g id="key-flow-1218" stroke="none" stroke-width="1" fill="none" fill-rule="evenodd">
        <g id="1-2-Mail-Verfication-Code-done" transform="translate(-503.000000, -518.000000)" stroke="#E01010" stroke-width="1.5">
            <g id="Group-8-Copy-10" transform="translate(480.000000, 495.000000)">
                <g id="Group-6" transform="translate(24.000000, 24.000000)">
                    <path d="M27.9110666,22.6403376 C29.2381302,20.4026199 30,17.7902821 30,15 C30,6.71572875 23.2842712,0 15,0 C6.71572875,0 0,6.71572875 0,15 C0,23.2842712 6.71572875,30 15,30 C17.8567499,30 20.526977,29.2014006 22.7996125,27.8152704" id="Oval" transform="translate(15.000000, 15.000000) scale(-1, 1) translate(-15.000000, -15.000000) "></path>
                    <path d="M21,9.6 L9.6,21" id="Path-2" fill="#FFFFFF" transform="translate(15.300000, 15.300000) scale(-1, 1) translate(-15.300000, -15.300000) "></path>
                    <path d="M21,9.6 L9.6,21" id="Path-2" fill="#FFFFFF"></path>
                </g>
            </g>
        </g>
    </g>
</svg>