<?xml version="1.0" encoding="UTF-8"?>
<svg width="10px" height="12px" viewBox="0 0 10 12" version="1.1" xmlns="http://www.w3.org/2000/svg" xmlns:xlink="http://www.w3.org/1999/xlink">
    <!-- Generator: Sketch 52.5 (67469) - http://www.bohemiancoding.com/sketch -->
    <title>附件</title>
    <desc>Created with Sketch.</desc>
    <g id="key-flow-1218" stroke="none" stroke-width="1" fill="none" fill-rule="evenodd">
        <g id="3-1-Check-list" transform="translate(-241.000000, -1045.000000)" fill="#999999" fill-rule="nonzero">
            <g id="上传信息展示-copy-2" transform="translate(231.000000, 1036.000000)">
                <g id="附件" transform="translate(15.000000, 15.000000) scale(-1, -1) translate(-15.000000, -15.000000) translate(10.000000, 9.000000)">
                    <path d="M5.83034453,10.9155605 C5.20212862,11.6192297 4.33137364,12.0116758 3.42478099,11.9997353 C2.5181919,12.0116758 1.64744054,11.6192297 1.01921733,10.9155604 C0.3642427,10.2355313 -0.00375719935,9.29668401 0.000721905871,8.31717583 L0.000721952527,8.31717821 C-0.0183890173,7.33945798 0.342649954,6.39756443 0.996706911,5.71879374 L5.6024481,0.76429604 L5.60244795,0.764296209 C6.06269444,0.256728972 6.69945275,-0.0200637774 7.35808794,0.00113398051 C8.01807601,-0.00544355827 8.65204771,0.277794 9.11372801,0.785495267 C9.58667686,1.27852864 9.84849839,1.96059676 9.83680315,2.66916793 L9.83680322,2.66917215 C9.84844931,3.37624945 9.58773354,4.05699417 9.11653892,4.54982578 L5.39706819,8.55037232 C5.10768656,8.8689698 4.71092609,9.04809671 4.29698061,9.04703357 C3.88432273,9.06309975 3.48463905,8.89035494 3.19689311,8.57157137 C2.59318823,7.90763773 2.59318823,6.8460816 3.19689319,6.18214543 L6.48589834,2.64495664 L7.14426273,3.35360718 L3.85525758,6.89079598 C3.60895276,7.16060997 3.60895276,7.59310539 3.85525756,7.86291941 C3.96954578,7.99259824 4.13121271,8.06131814 4.29698071,8.05068153 C4.46190727,8.04400642 4.61809687,7.96916567 4.73307629,7.8417203 L8.45818066,3.8381548 C8.75222152,3.53222132 8.91608665,3.10934362 8.91115783,2.66918499 L8.91115787,2.66918143 C8.91686506,2.22797528 8.75293605,1.80384184 8.45817828,1.49718355 C8.16879666,1.17858607 7.77203619,0.999459157 7.35809071,1.0005223 C6.94893738,0.980568815 6.55080839,1.14649144 6.26081988,1.4578161 L1.65789551,6.42442867 L1.65789563,6.42442853 C1.18634559,6.91982886 0.929194174,7.60522303 0.94888773,8.31416506 L0.948887719,8.3141664 C0.942777252,9.02456456 1.20591703,9.7069593 1.67759038,10.2039029 C2.1354481,10.7110877 2.76788445,10.9917153 3.42479208,10.9791788 C4.08169481,10.9917156 4.71413358,10.7110877 5.17199364,10.203903 L9.34163561,5.71881397 L10,6.42746452 L5.83034453,10.9155605 Z" id="路径"></path>
                </g>
            </g>
        </g>
    </g>
</svg>