<?xml version="1.0" encoding="UTF-8"?>
<svg width="40px" height="33px" viewBox="0 0 40 33" version="1.1" xmlns="http://www.w3.org/2000/svg" xmlns:xlink="http://www.w3.org/1999/xlink">
    <!-- Generator: Sketch 52.5 (67469) - http://www.bohemiancoding.com/sketch -->
    <title>空</title>
    <desc>Created with Sketch.</desc>
    <g id="key-flow-1218" stroke="none" stroke-width="1" fill="none" fill-rule="evenodd" opacity="0.11655971">
        <g id="5-1-Whitelist-investors-空状态" transform="translate(-508.000000, -723.000000)" fill="#000000" fill-rule="nonzero">
            <g id="空" transform="translate(508.000000, 723.000000)">
                <path d="M0.87461272,7.9961112 L0.87461272,32.9180152 L39.1168447,32.9180152 L39.1168447,7.9961112 L0.87461272,7.9961112 Z M37.3980927,31.1992632 L2.59336472,31.1992632 L2.59336472,9.7148632 L37.3980927,9.7148632 L37.3980927,31.1992632 Z M3.45274072,5.675796 L36.5387167,5.675796 C37.0113735,5.675796 37.3980927,5.2890768 37.3980927,4.81642 C37.3980927,4.3437632 37.0113735,3.957044 36.5387167,3.957044 L3.45274072,3.957044 C2.98008392,3.957044 2.59336472,4.3437632 2.59336472,4.81642 C2.59336472,5.2890768 2.98008392,5.675796 3.45274072,5.675796 Z M5.55821192,1.7656352 L34.4332455,1.7656352 C34.9059023,1.7656352 35.2926215,1.378916 35.2926215,0.9062592 C35.2926215,0.4336024 34.9059023,0.0468832 34.4332455,0.0468832 L5.55821192,0.0468832 C5.08555512,0.0468832 4.69883592,0.4336024 4.69883592,0.9062592 C4.69883592,1.378916 5.08555512,1.7656352 5.55821192,1.7656352 Z" id="形状"></path>
            </g>
        </g>
    </g>
</svg>