<?xml version="1.0" encoding="UTF-8"?>
<svg width="24px" height="26px" viewBox="0 0 24 26" version="1.1" xmlns="http://www.w3.org/2000/svg" xmlns:xlink="http://www.w3.org/1999/xlink">
    <!-- Generator: Sketch Beta 53 (71402) - https://sketchapp.com -->
    <title>PDF</title>
    <desc>Created with Sketch Beta.</desc>
    <g id="key-flow-1218" stroke="none" stroke-width="1" fill="none" fill-rule="evenodd">
        <g id="0-4" transform="translate(-428.000000, -522.000000)" fill="#1332C3" fill-rule="nonzero">
            <g id="PDF" transform="translate(428.000000, 522.000000)">
                <path d="M23.2062801,6.73334272 C23.2062801,6.68750933 23.1833634,6.64167595 23.1604467,6.59584256 C23.1604467,6.57292587 23.13753,6.57292587 23.13753,6.57292587 C23.1146133,6.52709248 23.0916966,6.48125909 23.0458633,6.4583424 L17.2479398,0.729169067 C17.2021065,0.68333568 17.1791898,0.660418987 17.1333564,0.637502293 L17.1104397,0.6145856 C17.0646063,0.591668907 17.0187729,0.568752213 16.9729395,0.568752213 L1.38958805,0.568752213 C1.06875435,0.568752213 0.81667072,0.82083584 0.81667072,1.14166955 L0.81667072,25.2958643 C0.81667072,25.616698 1.06875435,25.8687817 1.38958805,25.8687817 L22.6333628,25.8687817 C22.9541965,25.8687817 23.2062801,25.616698 23.2062801,25.2958643 L23.2062801,6.84792619 L23.2062801,6.73334272 Z M17.4083567,2.49375445 L21.2125278,6.25209216 L21.2354445,6.27500885 L17.4083567,6.27500885 L17.4083567,2.49375445 Z M1.96250539,24.722947 L1.96250539,1.69167019 L16.262522,1.69167019 L16.262522,6.84792619 C16.262522,7.16875989 16.5146057,7.42084352 16.8354394,7.42084352 L22.0604454,7.42084352 L22.0604454,24.7000303 L1.96250539,24.7000303 L1.96250539,24.722947 Z M15.964605,14.7541854 C15.4604378,14.7541854 14.8646037,14.8000188 14.245853,14.8916855 C13.9708527,14.7312687 13.6729357,14.5479351 13.4437687,14.3416849 C12.825018,13.7687676 12.3208508,12.9666833 12.0000171,12.095849 C12.0229338,12.0041822 12.0458505,11.9354321 12.0458505,11.866682 C12.0458505,11.866682 12.3896009,9.8958464 12.2979341,9.23126229 C12.2750174,9.13959552 12.2750174,9.11667883 12.2521007,9.04792875 L12.229184,8.95626197 C12.1375172,8.75001173 11.9541837,8.49792811 11.6562667,8.5208448 L11.4729331,8.5208448 C11.1520994,8.5208448 10.8770991,8.68126165 10.808349,8.93334528 C10.6020988,9.71251285 10.808349,10.8583475 11.1979328,12.3708493 L11.106266,12.6229329 C10.8312657,13.3104337 10.4645986,13.9979345 10.1666816,14.6166852 L10.1208482,14.6854353 C9.80001451,15.3271027 9.50209749,15.8771034 9.22709717,16.3354372 L8.95209685,16.4729374 C8.92918016,16.4729374 8.4479296,16.725021 8.35626283,16.7937711 C7.4166784,17.3666884 6.77501099,18.0083558 6.68334421,18.5125231 C6.66042752,18.6729399 6.68334421,18.8791902 6.84376107,18.970857 L7.11876139,19.1083571 C7.23334485,19.1771072 7.34792832,19.2000239 7.48542848,19.2000239 C8.15001259,19.2000239 8.95209685,18.3521062 10.0291814,16.4729374 C11.2666829,16.0604369 12.6875179,15.7396032 13.9250193,15.5562697 C14.8646037,16.0833536 16.0333551,16.4500207 16.7666893,16.4500207 C16.9041894,16.4500207 17.0187729,16.427104 17.1104397,16.4041873 C17.2479398,16.3583539 17.3625233,16.2896038 17.4312734,16.1750204 C17.5687735,15.9687701 17.5916902,15.6708531 17.5687735,15.3729361 C17.5687735,15.2812693 17.5000235,15.1666859 17.4083567,15.0979358 C17.1791898,14.8916855 16.6979392,14.7771021 15.964605,14.7541854 Z M7.34792832,18.6729399 C7.46251179,18.3291895 7.96667904,17.6646054 8.67709653,17.0916881 C8.72292992,17.0458547 8.83751339,16.9541879 8.92918016,16.8625212 C8.17292928,18.0541892 7.66876203,18.5354398 7.34792832,18.6729399 Z M11.6104333,8.8645952 C11.8166835,8.8645952 11.9541837,9.41459584 11.9541837,9.91876309 C11.9541837,10.4229303 11.8396002,10.7895974 11.7021001,11.0645978 C11.5875166,10.675014 11.5187665,10.0562633 11.5187665,9.64376277 C11.5187665,9.64376277 11.4958498,8.8645952 11.6104333,8.8645952 Z M10.3270985,15.8541867 C10.4875153,15.5791863 10.6250155,15.304186 10.7854323,15.006269 C11.1750161,14.2729348 11.4270997,13.6771008 11.6104333,13.2187669 C11.9771004,13.883351 12.4354342,14.4562684 12.9625182,14.9146022 C13.0312683,14.9604356 13.1000183,15.0291857 13.1687684,15.0750191 C12.1146005,15.2812693 11.1750161,15.533353 10.3270985,15.8541867 L10.3270985,15.8541867 Z M17.2021065,15.8083533 C17.1333564,15.8541867 16.9500228,15.8771034 16.8125227,15.8771034 C16.4229389,15.8771034 15.9416883,15.6937698 15.2541875,15.3958528 C15.5062711,15.3729361 15.7583548,15.3729361 15.964605,15.3729361 C16.3541888,15.3729361 16.4687723,15.3729361 16.8583561,15.4646029 C17.2708565,15.5562697 17.2708565,15.7625199 17.2021065,15.8083533 L17.2021065,15.8083533 Z" id="形状"></path>
            </g>
        </g>
    </g>
</svg>