<?xml version="1.0" encoding="UTF-8"?>
<svg width="11px" height="12px" viewBox="0 0 11 12" version="1.1" xmlns="http://www.w3.org/2000/svg" xmlns:xlink="http://www.w3.org/1999/xlink">
    <!-- Generator: Sketch 52.5 (67469) - http://www.bohemiancoding.com/sketch -->
    <title>关  闭</title>
    <desc>Created with Sketch.</desc>
    <g id="key-flow-1218" stroke="none" stroke-width="1" fill="none" fill-rule="evenodd">
        <g id="4-1-Issue-Security-Token" transform="translate(-1201.000000, -103.000000)" fill="#999999">
            <g id="Group-8-Copy" transform="translate(907.000000, 88.000000)">
                <g id="关--闭" transform="translate(294.000000, 15.000000)">
                    <path d="M6.351049,6.00105654 L10.8297444,1.1146106 C11.0564733,0.865594478 11.0564733,0.463648919 10.8297444,0.214632793 L10.8053865,0.188062003 C10.5772021,-0.0586982965 10.2093329,-0.0586982965 9.98114844,0.188061979 L5.50166884,5.08094135 L1.02297345,0.185495636 C0.794696546,-0.0618318788 0.426226915,-0.0618318788 0.197950029,0.185495656 L0.173985033,0.21249499 C-0.0537300296,0.454423802 -0.0585426661,0.851916345 0.163237052,1.1003196 C0.166772256,1.10427919 0.170355232,1.10818769 0.173985023,1.11204403 L4.65307789,6.00106803 L0.173598293,10.8883811 C-0.0531306096,11.1373973 -0.0531306096,11.5393428 0.173598305,11.788359 L0.198349007,11.8149297 C0.426533449,12.06169 0.794402574,12.06169 1.02258707,11.8149298 L5.50167994,6.92761671 L9.98115954,11.8149298 C10.209344,12.0616901 10.5772131,12.0616901 10.8053976,11.8149299 L10.8301483,11.7879305 C11.0566172,11.5389648 11.0566172,11.1373462 10.8301483,10.8883816 L6.35105544,6.00106852 L6.351049,6.00105654 Z" id="路径"></path>
                </g>
            </g>
        </g>
    </g>
</svg>