<?xml version="1.0" encoding="UTF-8"?>
<svg width="20px" height="20px" viewBox="0 0 20 20" version="1.1" xmlns="http://www.w3.org/2000/svg" xmlns:xlink="http://www.w3.org/1999/xlink">
    <!-- Generator: Sketch Beta 53 (71402) - https://sketchapp.com -->
    <title>Shape</title>
    <desc>Created with Sketch Beta.</desc>
    <g id="组件" stroke="none" stroke-width="1" fill="none" fill-rule="evenodd">
        <g id="Top-Navigation" transform="translate(-1028.000000, -30.000000)" fill="#0099E6" fill-rule="nonzero">
            <g id="title" transform="translate(210.000000, 18.000000)">
                <g id="Community" transform="translate(818.000000, 12.000000)">
                    <path d="M13.5633253,14.1919417 L15.2309166,6.60652252 C15.2989816,6.28544657 15.259277,6.05558539 15.1118029,5.91693895 C14.9643289,5.77829252 14.7695875,5.75275239 14.5275788,5.84031856 L4.72622562,9.48526025 C4.50690521,9.56552923 4.35754046,9.65674399 4.27813136,9.75890451 C4.19872227,9.86106504 4.1892688,9.95775269 4.24977096,10.0489675 C4.31027311,10.1401822 4.43127748,10.2113297 4.61278405,10.26241 L7.11984312,11.0176682 L12.9393965,7.48218419 C13.0982148,7.38002366 13.2192191,7.35813212 13.3024096,7.41650955 C13.355349,7.45299546 13.3402235,7.50772432 13.257033,7.58069613 L8.54920712,11.6853602 L8.36770059,14.1809959 C8.54164435,14.1809959 8.71180673,14.100727 8.87818771,13.940189 L10.1033569,12.8018288 L12.6444484,14.607881 C13.1284659,14.8705795 13.4347581,14.7319331 13.5633253,14.1919417 L13.5633253,14.1919417 Z M20,10 C20,11.3541667 19.7358631,12.6488095 19.2075893,13.8839286 C18.6793155,15.1190476 17.96875,16.1830357 17.0758929,17.0758929 C16.1830357,17.96875 15.1190476,18.6793155 13.8839286,19.2075893 C12.6488095,19.7358631 11.3541667,20 10,20 C8.64583333,20 7.35119048,19.7358631 6.11607143,19.2075893 C4.88095238,18.6793155 3.81696428,17.96875 2.92410715,17.0758929 C2.03125001,16.1830357 1.32068454,15.1190476 0.792410723,13.8839286 C0.264136908,12.6488095 -3.70074342e-16,11.3541667 0,10 C3.70074342e-16,8.64583333 0.264136908,7.35119048 0.792410723,6.11607143 C1.32068454,4.88095238 2.03125001,3.81696428 2.92410715,2.92410715 C3.81696428,2.03125001 4.88095238,1.32068454 6.11607143,0.792410723 C7.35119048,0.264136908 8.64583333,1.85037171e-16 10,0 C11.3541667,-1.85037171e-16 12.6488095,0.264136908 13.8839286,0.792410723 C15.1190476,1.32068454 16.1830357,2.03125001 17.0758929,2.92410715 C17.96875,3.81696428 18.6793155,4.88095238 19.2075893,6.11607143 C19.7358631,7.35119048 20,8.64583333 20,10 Z" id="Shape"></path>
                </g>
            </g>
        </g>
    </g>
</svg>