<?xml version="1.0" encoding="UTF-8"?>
<svg width="182px" height="308px" viewBox="0 0 182 308" version="1.1" xmlns="http://www.w3.org/2000/svg" xmlns:xlink="http://www.w3.org/1999/xlink">
    <!-- Generator: Sketch 52.5 (67469) - http://www.bohemiancoding.com/sketch -->
    <title>分组 8</title>
    <desc>Created with Sketch.</desc>
    <defs>
        <circle id="path-1" cx="8.5" cy="8.5" r="8.5"></circle>
        <circle id="path-2" cx="8.5" cy="133.5" r="8.5"></circle>
        <circle id="path-3" cx="8.5" cy="289.5" r="8.5"></circle>
    </defs>
    <g id="key-flow-1218" stroke="none" stroke-width="1" fill="none" fill-rule="evenodd">
        <g id="3-1-waitting" transform="translate(-206.000000, -731.000000)">
            <g id="分组-8" transform="translate(211.000000, 736.000000)">
                <text id="Preparation/planning" font-family="DINAlternate-Bold, DIN Alternate" font-size="16" font-weight="bold" line-spacing="20" fill="#1A1A1A">
                    <tspan x="36" y="53">Preparation/planning</tspan>
                </text>
                <text id="Implementation" font-family="DINAlternate-Bold, DIN Alternate" font-size="16" font-weight="bold" line-spacing="20" fill="#1A1A1A">
                    <tspan x="37" y="165">Implementation</tspan>
                </text>
                <text id="STO-execution" font-family="DINAlternate-Bold, DIN Alternate" font-size="16" font-weight="bold" line-spacing="20" fill="#1A1A1A">
                    <tspan x="37" y="277">STO execution</tspan>
                </text>
                <g id="Implementation" transform="translate(37.000000, 116.000000)" fill="#1534C3" fill-rule="nonzero">
                    <path d="M0.88048454,2.10192706e-15 C0.392549357,2.10192706e-15 0,0.395659164 0,0.887459807 L0,16.8728296 C0,17.3646302 0.392549357,17.7602894 0.88048454,17.7602894 L4.57851961,17.7602894 C4.84633366,17.7602894 5.09580427,17.6382637 5.26456381,17.4311897 L9.19160855,12.2744373 L11.4405128,14.1454984 C11.800044,14.4450161 12.3283347,14.4080386 12.6475104,14.0641479 L17.0205836,9.30884244 C17.4461511,9.57138264 17.9450924,9.7192926 18.4807204,9.7192926 C20.0325744,9.7192926 21.298271,8.44726688 21.298271,6.87942122 C21.298271,5.31157556 20.0362431,4.03954984 18.4807204,4.03954984 C16.9288664,4.03954984 15.6631699,5.31157556 15.6631699,6.87942122 C15.6631699,7.25659164 15.7365436,7.61897106 15.872285,7.94807074 L11.9211106,12.2411576 L9.62818213,10.333119 C9.44841654,10.1815113 9.21362066,10.111254 8.97882479,10.1334405 C8.74402891,10.155627 8.53124514,10.273955 8.38082904,10.4588424 L4.16028945,15.9853698 L1.76096908,15.9853698 L1.76096908,1.77491961 L24.2390056,1.77491961 L24.2390056,15.9853698 L12.0956564,15.9853698 C11.6077212,15.9853698 11.2151718,16.3810289 11.2151718,16.8728296 L11.2151718,22.2250804 L6.04232516,22.2250804 C5.55438997,22.2250804 5.16184062,22.6207395 5.16184062,23.1125402 C5.16184062,23.6043408 5.55438997,24 6.04232516,24 L17.8811735,24 C18.3691087,24 18.7616581,23.6043408 18.7616581,23.1125402 C18.7616581,22.6207395 18.3691087,22.2250804 17.8811735,22.2250804 L12.9761409,22.2250804 L12.9761409,17.7602894 L25.1194902,17.7602894 C25.6074254,17.7602894 25.9999747,17.3646302 25.9999747,16.8728296 L25.9999747,0.887459807 C26.0036434,0.395659164 25.6074254,0 25.1231589,0 L0.88048454,2.10192706e-15 Z M18.4807204,5.8107717 C19.0640415,5.8107717 19.5373019,6.28778135 19.5373019,6.87572347 C19.5373019,7.46366559 19.0640415,7.94067524 18.4807204,7.94067524 C17.8973994,7.94067524 17.424139,7.46366559 17.424139,6.87572347 C17.424139,6.28778135 17.8973994,5.8107717 18.4807204,5.8107717 Z" id="形状"></path>
                </g>
                <g id="execution" transform="translate(37.000000, 226.000000)" fill="#1534C3" fill-rule="nonzero" stroke="#1534C3" stroke-width="3">
                    <path d="M19.012785,7.99305795 C18.0548559,7.03665882 16.5025887,7.03677671 15.5455224,7.9926976 C14.5884619,8.94990028 14.5884618,10.5010059 15.5448078,11.4574837 C16.5027082,12.4142368 18.0552405,12.4142369 19.0124248,11.4581982 C19.9693675,10.5011134 19.9694856,8.95027259 19.0127849,7.99305805 Z M19.0127849,7.99305805 C19.0126669,7.99293992 19.0125488,7.9928218 19.0124307,7.99270369 L19.0131395,7.993412 C19.0130214,7.99329397 19.0129032,7.99317596 19.012785,7.99305795 Z M14.3204367,12.687116 L14.3166579,12.6833391 C12.6863889,11.04794 12.686389,8.40233477 14.3204322,6.76315029 C15.9561656,5.13390311 18.6017981,5.1339032 20.2413185,6.76692298 C21.8715873,8.40232185 21.8715873,11.047927 20.2375444,12.6871116 C18.6018113,14.3163586 15.9561789,14.3163586 14.3204367,12.687116 Z M3.80226281,9.94939773 L3.04292792,9.190587 L3.76942393,8.49462536 L4.59788358,9.15551824 L3.80226281,9.94939773 Z M2.02316498,11.7246018 L1.68153146,12.0654877 L1.09200288,12.0302506 L1.14250788,11.0111331 L1.3075433,10.853034 L2.02316498,11.7246018 Z M6.71401682,11.7809605 L6.4379434,12.2579564 C5.45136706,13.9625497 5.78132059,15.2104739 8.18740568,17.7578107 L8.70095777,18.3015114 L9.24516316,18.8145485 C11.801934,21.2248855 12.9531949,21.5432517 14.6376814,20.5804459 L15.3211877,20.1897727 L15.9466736,19.7025321 C17.0140039,18.8711037 17.9592112,17.9710124 20.5557152,15.3755598 C22.9207707,13.0114872 24.4738772,9.8406295 25.1556986,6.50597296 C25.4310483,5.15929061 25.5395987,3.8714726 25.487484,2.83703418 C25.4651556,2.39383086 25.4138513,2.0229786 25.3441425,1.75665669 C25.3084296,1.62021604 25.2863284,1.57349379 25.3605937,1.64772817 C25.4329439,1.72004833 25.3849785,1.69721447 25.2477411,1.66080284 C24.9819429,1.59028167 24.6123121,1.53784331 24.1708407,1.51415562 C23.1389867,1.45879021 21.8554065,1.56373606 20.512485,1.83614247 C17.1821057,2.51169696 14.0087355,4.06689488 11.6252906,6.45060975 C8.96035249,9.11444035 8.11625992,9.99698377 7.28364737,11.056259 L6.71401682,11.7809605 Z M6.3485623,21.6567557 L6.29060172,21.7146922 L5.28724063,21.7147459 L5.28724063,20.7132847 L5.34596355,20.6545736 L6.3485623,21.6567557 Z M17.9216425,22.3341692 L18.627757,23.0561733 L17.7722597,23.9113149 L17.0590257,23.1979596 L17.9216425,22.3341692 Z M16.0640765,25.6187883 L15.8158589,25.8669027 L14.8522333,25.9140515 L14.8288227,25.431197 L15.2830182,24.9763835 L16.0640765,25.6187883 Z M24.7895647,5.58560829 L23.9751724,6.62568555 C23.3056094,6.10141019 22.6687561,5.53670903 22.0710359,4.93759733 C21.4661284,4.33455017 20.8984595,3.69528708 20.3711669,3.02334305 L18.7473643,0.954085317 L21.3551045,0.610205565 C22.0250207,0.521864473 22.7000781,0.478189607 23.383306,0.479503406 C24.1660485,0.484903729 24.805208,0.563288491 25.2670914,0.691348869 L26.0842156,0.917902275 L26.3114572,1.73483539 C26.4404503,2.19856542 26.5183679,2.84384538 26.5213503,3.62963558 C26.5252846,4.26043255 26.4775794,4.99138826 26.3677826,5.79314856 L24.7895647,5.58560829 Z M23.3765233,5.62035923 C23.4338359,5.44642715 23.4520733,5.39046286 23.4678722,5.33666915 L26.3463001,6.18204055 C26.3135016,6.29371748 26.2865581,6.37696576 26.2262859,6.55775759 L26.2262552,6.55784954 L26.226245,6.5578802 L23.3765233,5.62035923 Z M23.556254,5.00804044 C23.6078787,4.91883276 23.657823,4.84766964 23.7072876,4.78288796 C23.7264554,4.75629881 23.7028029,4.78901105 23.6800894,4.826005 L26.2408732,6.38879766 C26.1569897,6.52708459 26.0947139,6.61889247 25.9872901,6.74264572 L23.556254,5.00804044 Z M10.8551521,21.3450142 C10.1482187,20.9367988 9.39483357,20.348056 8.56607646,19.5694787 L8.51921882,19.5254582 L8.48684909,19.5578145 L7.98013104,19.0190113 L7.43793851,18.5096476 L7.47049466,18.4771049 L7.42742298,18.431306 C6.41767829,17.3576247 5.72829093,16.417911 5.33456999,15.5423541 C4.88566747,14.5471445 4.80283365,13.6222478 5.10401617,12.6428889 C5.61565664,10.9676715 6.65475414,9.77314063 10.6593404,5.76502961 L10.784222,5.64078343 C12.0102365,4.4152784 13.4600688,3.37247881 15.0887507,2.54300643 C16.5063734,1.82511095 18.0064633,1.28312416 19.5684526,0.926235737 C19.5880337,0.921936435 19.5880337,0.921936435 19.6078532,0.9175705 C19.9096157,0.851057614 19.9545263,0.84139533 20.0917756,0.815288143 L20.3678561,2.2016151 L21.4102552,1.43956361 C21.9889002,2.23108365 22.6286971,2.97607633 23.3278924,3.67181658 C24.0175545,4.36340541 24.7599472,5.0003645 25.5483625,5.57693655 L26.3347084,6.15199523 L26.129138,7.1042416 L26.1291352,7.10425419 C26.110678,7.18976361 26.110678,7.18976361 26.0904948,7.28139815 C26.0692301,7.37607873 26.0603017,7.41478171 26.0494956,7.4589229 C25.6942232,9.00806598 25.151852,10.5082911 24.4330036,11.9291834 C23.6079982,13.5520926 22.5732905,14.9929443 21.3581517,16.2075541 C17.3467899,20.230024 16.0804341,21.3335893 14.3835279,21.8657967 L8.39987296,23.7424739 L10.8551521,21.3450142 Z M22.6032187,2.97001858 C22.6045376,2.96920832 22.6024874,2.97059971 22.5958391,2.97512384 C22.594852,2.97584543 22.5938623,2.97656794 22.5928701,2.97729137 Z M22.5928701,2.97729137 C22.5355731,3.01906496 22.4696563,3.06387415 22.3907926,3.10935721 L20.6600236,0.675551595 C20.7415384,0.605033916 20.8232951,0.544880565 20.9088141,0.489711223 C20.9594538,0.4570429 21.0036378,0.430877199 21.0531286,0.402582952 L21.8025238,1.70197008 L22.5519097,3.00136253 C22.5771296,2.98681768 22.6000287,2.97197833 22.6032187,2.97001858 Z M22.5511291,2.99998779 C22.5730993,2.98490384 22.5971894,2.96651927 22.6227713,2.94438857 L22.3116501,2.58474815 L22.5511291,2.99998779 Z M22.3116501,2.58474815 L21.6413974,1.80997008 L20.8920023,0.510582952 C20.8667851,0.525126429 20.8438884,0.539964367 20.8406995,0.541923374 C20.9083486,0.492874436 20.9742689,0.448062936 21.0531378,0.402577632 L22.3116501,2.58474815 Z M22.0738063,3.16042298 C21.9431815,3.19974794 21.8782567,3.22036466 21.8152006,3.24310992 L20.79725,0.421093493 C20.9254209,0.374859649 21.0293105,0.341869783 21.2089928,0.287776516 L22.0738063,3.16042298 Z M21.5901859,2.41438638 L21.9170746,3.14312205 C22.0037271,3.10425236 22.0656324,3.06342081 22.1093467,3.02633479 L21.5901859,2.41438638 Z M22.1274358,3.02772915 L21.9632344,3.13572915 L20.1685625,0.738681633 C20.3270455,0.604228908 20.4970185,0.492117884 20.6892372,0.405894374 L22.1274358,3.02772915 Z" id="形状"></path>
                </g>
                <path d="M-136.5,146 L154,146.5" id="Path-8" stroke="#DFDFDF" stroke-width="3" transform="translate(8.500000, 146.000000) scale(-1, -1) rotate(90.000000) translate(-8.500000, -146.000000) "></path>
                <g id="分组" transform="translate(37.000000, 2.000000)" fill="#1534C3" fill-rule="nonzero">
                    <g id="Preparation/planning">
                        <path d="M13,17.8825127 L24.5519742,12.1064977 C25.0533046,11.8748911 25.6474518,12.0935831 25.8790375,12.5949583 C26.1005638,13.0745564 25.9108503,13.6437486 25.4458979,13.8945023 L13.4469634,19.894518 C13.1655778,20.0351398 12.8344272,20.0351398 12.5530428,19.894518 L0.554108353,13.8945024 C0.0680421126,13.6323648 -0.113507391,13.0257907 0.148603709,12.5396801 C0.399332069,12.0746851 0.968471529,11.8849534 1.44802894,12.1065008 L13.0000031,17.8825159 L13,17.8825127 Z M13,23.8825283 L24.5519742,18.1065133 C25.0533046,17.8749068 25.6474518,18.0935987 25.8790375,18.5949739 C26.1005638,19.0745721 25.9108503,19.6437642 25.4458979,19.894518 L13.4469634,25.8945336 C13.1655778,26.0351555 12.8344272,26.0351555 12.5530428,25.8945336 L0.554108353,19.894518 C0.0680421126,19.6323804 -0.113507391,19.0258063 0.148603709,18.5396957 C0.399332069,18.0747007 0.968471529,17.884969 1.44802894,18.1065165 L13.0000031,23.8825315 L13,23.8825283 Z M0.554105191,7.89548669 C0.059855375,7.64913045 -0.141123653,7.04871263 0.105210722,6.5544176 C0.202108993,6.35998022 0.359685312,6.20238856 0.554105235,6.10548205 L12.5530397,0.105466428 C12.8344253,-0.035155476 13.1655759,-0.035155476 13.4469603,0.105466403 L25.4458948,6.10548203 C25.9401446,6.35183829 26.1411237,6.9522561 25.8947893,7.44655114 C25.797891,7.64098852 25.6403147,7.79858018 25.4458948,7.89548668 L13.4469603,13.8955023 C13.1655747,14.0361242 12.8344241,14.0361242 12.5530397,13.8955023 L0.554105248,7.89548672 Z M13,11.8824971 L22.763133,7.00048436 L13,2.11847165 L3.23686696,7.00048436 L13,11.8824971 Z" id="形状"></path>
                    </g>
                </g>
                <text id="About-2weeks" font-family="DINAlternate-Bold, DIN Alternate" font-size="14" font-weight="bold" fill="#999999">
                    <tspan x="36" y="73">About  2weeks</tspan>
                </text>
                <text id="About-4weeks" font-family="DINAlternate-Bold, DIN Alternate" font-size="14" font-weight="bold" fill="#999999">
                    <tspan x="37" y="185">About 4weeks</tspan>
                </text>
                <g id="分组-9" transform="translate(37.000000, 284.000000)" fill="#999999" font-family="DINAlternate-Bold, DIN Alternate" font-size="14" font-weight="bold">
                    <text id="4-12weeks">
                        <tspan x="0" y="13">4-12weeks</tspan>
                    </text>
                </g>
                <g id="Oval-5-Copy-2">
                    <use stroke="#FFFFFF" stroke-width="10" fill="#FFFFFF" fill-rule="evenodd" xlink:href="#path-1"></use>
                    <use stroke="#C5D0FF" stroke-width="2" xlink:href="#path-1"></use>
                </g>
                <g id="Oval-5-Copy-5">
                    <use stroke="#FFFFFF" stroke-width="10" fill="#FFFFFF" fill-rule="evenodd" xlink:href="#path-2"></use>
                    <use stroke="#C5D0FF" stroke-width="2" xlink:href="#path-2"></use>
                </g>
                <g id="Oval-5-Copy-6">
                    <use stroke="#FFFFFF" stroke-width="10" fill="#FFFFFF" fill-rule="evenodd" xlink:href="#path-3"></use>
                    <use stroke="#C5D0FF" stroke-width="2" xlink:href="#path-3"></use>
                </g>
                <text id="1" font-family="DINAlternate-Bold, DIN Alternate" font-size="12" font-weight="bold" fill="#6073CA">
                    <tspan x="6" y="13">1</tspan>
                </text>
                <text id="2" font-family="DINAlternate-Bold, DIN Alternate" font-size="12" font-weight="bold" fill="#6073CA">
                    <tspan x="6" y="138">2</tspan>
                </text>
                <text id="3" font-family="DINAlternate-Bold, DIN Alternate" font-size="12" font-weight="bold" fill="#6073CA">
                    <tspan x="6" y="294">3</tspan>
                </text>
            </g>
        </g>
    </g>
</svg>