<?xml version="1.0" encoding="UTF-8"?>
<svg width="20px" height="20px" viewBox="0 0 20 20" version="1.1" xmlns="http://www.w3.org/2000/svg" xmlns:xlink="http://www.w3.org/1999/xlink">
    <!-- Generator: Sketch Beta 53 (71402) - https://sketchapp.com -->
    <title>Combined Shape</title>
    <desc>Created with Sketch Beta.</desc>
    <g id="组件" stroke="none" stroke-width="1" fill="none" fill-rule="evenodd">
        <g id="Top-Navigation" transform="translate(-1088.000000, -30.000000)" fill="#03ACED">
            <g id="title" transform="translate(210.000000, 18.000000)">
                <g id="Community" transform="translate(818.000000, 12.000000)">
                    <path d="M70,0 C75.5228475,-1.01453063e-15 80,4.4771525 80,10 C80,15.5228475 75.5228475,20 70,20 C64.4771525,20 60,15.5228475 60,10 C60,4.4771525 64.4771525,1.01453063e-15 70,0 Z M76.9978886,6.18611863 L77,6.18811881 C76.4890369,6.39680634 75.9777218,6.52715271 75.4660549,6.57915791 C76.0431758,6.25045838 76.4334362,5.78674534 76.6368361,5.1880188 C76.1089817,5.48471513 75.5452331,5.68773543 74.9455904,5.7970797 C74.4177359,5.26569323 73.7688268,5 72.9988631,5 C72.2619782,5 71.6338314,5.2460246 71.1144226,5.73807381 C70.5950138,6.23012302 70.3353094,6.82518252 70.3353094,7.52325233 C70.3353094,7.71060439 70.3571274,7.90329032 70.4007634,8.10131012 C69.3126793,8.04930492 68.2914569,7.79027902 67.337096,7.32423242 C66.3827351,6.85818582 65.5730063,6.23712371 64.9079097,5.4610461 C64.6658004,5.8510851 64.5447458,6.27546087 64.5447458,6.73417341 C64.5454496,7.16688334 64.65278,7.56792345 64.866737,7.93729372 C65.0806941,8.30666399 65.3692545,8.60602726 65.7324184,8.83538353 C65.3030967,8.82004867 64.9015754,8.71337134 64.5278545,8.51535153 L64.5278545,8.54635464 C64.5278545,9.1557489 64.7298468,9.69080241 65.1338314,10.1515152 C65.537816,10.6122279 66.0477235,10.9025903 66.6635537,11.0226023 C66.4327053,11.0799413 66.1990417,11.1086109 65.9625629,11.1086109 C65.8084294,11.1086109 65.6405717,11.0956096 65.4589898,11.069607 C65.6293108,11.5749908 65.9428564,11.9903657 66.3996264,12.3157316 C66.8563965,12.6410975 67.373342,12.8091143 67.9504629,12.819782 C66.9827297,13.5385205 65.8802176,13.8978898 64.6429268,13.8978898 C64.4064479,13.8978898 64.192139,13.8875554 64,13.8668867 C65.2372909,14.6222956 66.6009149,15 68.0908722,15 C69.0360836,15 69.9239348,14.8579858 70.7544259,14.5739574 C71.5849169,14.289929 72.2943533,13.9095576 72.8827351,13.4328433 C73.4711169,12.956129 73.9782091,12.4077408 74.4040117,11.7876788 C74.8298143,11.1676168 75.1472308,10.5205521 75.3562612,9.84648466 C75.5652915,9.17241726 75.6698067,8.49668302 75.6698067,7.81928195 C75.6698067,7.67326734 75.6669915,7.56392308 75.6613611,7.49124915 C76.1842889,7.13187988 76.6297981,6.69683637 76.9978886,6.18611863 Z" id="Combined-Shape"></path>
                </g>
            </g>
        </g>
    </g>
</svg>