<?xml version="1.0" encoding="UTF-8"?>
<svg width="40px" height="31px" viewBox="0 0 40 31" version="1.1" xmlns="http://www.w3.org/2000/svg" xmlns:xlink="http://www.w3.org/1999/xlink">
    <!-- Generator: Sketch 52.5 (67469) - http://www.bohemiancoding.com/sketch -->
    <title>上传</title>
    <desc>Created with Sketch.</desc>
    <defs>
        <filter x="-3.3%" y="-15.0%" width="106.7%" height="130.0%" filterUnits="objectBoundingBox" id="filter-1">
            <feOffset dx="0" dy="2" in="SourceAlpha" result="shadowOffsetOuter1"></feOffset>
            <feGaussianBlur stdDeviation="2" in="shadowOffsetOuter1" result="shadowBlurOuter1"></feGaussianBlur>
            <feColorMatrix values="0 0 0 0 0.4   0 0 0 0 0.4   0 0 0 0 0.4  0 0 0 0.08 0" type="matrix" in="shadowBlurOuter1" result="shadowMatrixOuter1"></feColorMatrix>
            <feMerge>
                <feMergeNode in="shadowMatrixOuter1"></feMergeNode>
                <feMergeNode in="SourceGraphic"></feMergeNode>
            </feMerge>
        </filter>
    </defs>
    <g id="key-flow-1218" stroke="none" stroke-width="1" fill="none" fill-rule="evenodd">
        <g id="3-1-Check-list" transform="translate(-256.000000, -582.000000)" fill="#92A5FF">
            <g id="1" transform="translate(207.000000, 477.000000)">
                <g id="分组-10" filter="url(#filter-1)" transform="translate(23.000000, 78.000000)">
                    <g id="上传" transform="translate(30.000000, 29.000000)">
                        <path d="M16.172335,4.16292775e-05 C11.1896566,4.16292775e-05 7.08416463,3.79688031 6.69192062,8.60698576 C2.93588702,8.99132833 0,12.0683891 0,15.7953473 C0,19.5223055 2.92636879,22.6855568 6.66102119,22.9953556 C6.73334631,22.9999911 6.80597808,22.9960808 6.8773495,22.9837089 L9.19040056,22.9837089 C9.64401163,22.959788 9.9919448,22.5800787 9.96753169,22.1356053 C9.94495521,21.7245639 9.60988993,21.3962485 9.19039824,21.3741288 L6.72759056,21.3741288 L6.72759025,21.3741288 C3.82729214,21.0549307 1.63542905,18.6504284 1.63793629,15.790675 C1.63793629,12.692641 4.25526434,10.1676177 7.4788109,10.1676177 C7.93048583,10.1676177 8.30133472,9.80656858 8.30133472,9.36166295 C8.30133472,5.08032424 11.8315309,1.59794766 16.1723553,1.59794766 C20.4894074,1.59794766 23.9982224,5.08032424 23.9982224,9.36166295 C23.9982224,9.80656858 24.366694,10.1676177 24.8207462,10.1676177 C27.9254077,10.1676177 30.3597071,12.6367275 30.3597071,15.790675 C30.3597071,18.8048615 27.540314,21.0782969 24.8445186,21.3764491 C24.7185647,21.37258 24.5925315,21.3718033 24.466538,21.3741197 L22.1772593,21.3578143 L22.1772595,21.3578143 C19.6110978,21.3476029 17.4501109,19.4752795 17.1256321,16.9809586 L16.5479636,12.5691627 L18.7992065,14.6655767 C19.0607025,14.9218051 19.4886051,14.9218051 19.7548556,14.6655767 C20.0163516,14.407019 20.0163516,13.9877362 19.7548556,13.7245198 L16.4790284,10.5193448 C16.2139178,10.2614468 15.7861128,10.2614468 15.5210021,10.5193448 L12.2427838,13.7338462 C11.9801758,13.996826 11.9848583,14.4186111 12.2532441,14.6759313 C12.3782858,14.7958168 12.5456767,14.8638602 12.7206079,14.8659104 C12.900866,14.8658798 13.0736809,14.795464 13.2008096,14.6702451 L15.1739159,12.7648377 L15.8442966,18.5486065 L15.8442964,18.5486052 C16.1369403,21.0811807 18.3232851,22.9949318 20.9244554,22.9953413 L24.4665377,22.9953413 L24.6139263,22.9836946 C24.6614711,22.993012 24.7185247,23 24.7732012,23 C28.2986382,22.7088314 32,19.7458951 32,15.7953284 C31.9952455,12.0147998 29.2471648,8.9936297 25.6052339,8.61160738 C25.210615,3.79683868 21.1312703,0 16.1723643,0 L16.172335,4.16292775e-05 Z" id="路径"></path>
                    </g>
                </g>
            </g>
        </g>
    </g>
</svg>